<?xml version="1.0" ?>
<!-- Uploaded to: SVG Repo, www.svgrepo.com, Generator: SVG Repo Mixer Tools -->
<svg width="800px" height="800px" viewBox="0 0 64 64" xmlns="http://www.w3.org/2000/svg">
<g id="flat">
<path d="M24.9,43l.04-2H12.857L20,61h4L20,47A5,5,0,0,0,24.9,43Z" style="fill:#854219"/>
<path d="M44.277,12H36.043a3.419,3.419,0,0,0-3.4,3.022L30.9,30H16a6,6,0,0,0-6,6v7L6,46V61h4V49l1.257-.419A16,16,0,0,0,19,43H34l7,18h4l-1-3L40,43V18l5.318-3.127" style="fill:#a65c2e"/>
<path d="M31.586,6h-.172l-.707-.708A2.394,2.394,0,0,1,30,3.586V2H28V3.586A4.379,4.379,0,0,0,28.721,6H25.414l-.707-.708A2.394,2.394,0,0,1,24,3.586V2H22V3.586A4.379,4.379,0,0,0,22.721,6H20.414A2.416,2.416,0,0,1,18,3.586V2H16V3.586A4.413,4.413,0,0,0,20.414,8H31.586A2.416,2.416,0,0,1,34,10.414V12h2V10.414A4.413,4.413,0,0,0,31.586,6Z" style="fill:#fdb62f"/>
<path d="M57,2V3.586A2.416,2.416,0,0,1,54.586,6H52.279A4.384,4.384,0,0,0,53,3.586V2H51V3.586a2.4,2.4,0,0,1-.707,1.707L49.586,6H46.279A4.384,4.384,0,0,0,47,3.586V2H45V3.586a2.4,2.4,0,0,1-.707,1.707L43.586,6h-.172A4.413,4.413,0,0,0,39,10.414V12h2V10.414A2.416,2.416,0,0,1,43.414,8H54.586A4.413,4.413,0,0,0,59,3.586V2Z" style="fill:#fdb62f"/>
<polygon points="51 42 40 37 40 43 46 45 41.986 50.447 43.313 55.424 51 46 51 42" style="fill:#854219"/>
<rect height="2" style="fill:#663318" width="2" x="36" y="14"/>
<circle cx="46" cy="13" r="2" style="fill:#dd4a43"/>
<path d="M16,30H7a4.994,4.994,0,0,0,3.161,4.64A6,6,0,0,1,16,30Z" style="fill:#854219"/>
<path d="M36.043,12H29a3.985,3.985,0,0,0,3.538,3.953l.109-.931A3.419,3.419,0,0,1,36.043,12Z" style="fill:#854219"/>
<path d="M15,38H13V36a3,3,0,0,1,3-3v2a1,1,0,0,0-1,1Z" style="fill:#c47747"/>
<rect height="4" style="fill:#964c1e" width="2" x="18" y="39"/>
<rect height="4" style="fill:#964c1e" width="2" x="33" y="39"/>
</g>
</svg>